# xmcd
#
# Track frame offsets: 
#        300
#        18517
#        36620
#        52421
#        75141
#        89491
#        107212
#        123220
#        139617
#        155954
#        171007
#        191276
#
# Disc length: 2740 seconds
#
# Revision: 2
# Processed by: cddbd v1.5.2PL0 Copyright (c) Steve Scherf et al.
# Submitted via: ExactAudioCopy v0.99pb4
#
DISCID=a20ab00c
DTITLE=Любовь Успенская - Горький шоколад
DYEAR=2003
DGENRE=Chanson
TTITLE0=Горький шоколад
TTITLE1=Ветер
TTITLE2=Белым-бела
TTITLE3=Небо
TTITLE4=Возьми меня с собой
TTITLE5=Случайные связи
TTITLE6=Здравствуй, мой дорогой
TTITLE7=Не повторяйтесь
TTITLE8=Серпантин
TTITLE9=Танго
TTITLE10=Сильней, чем прежде
TTITLE11=Я буду очень по тебе скучать
EXTD=
EXTT0=
EXTT1=
EXTT2=
EXTT3=
EXTT4=
EXTT5=
EXTT6=
EXTT7=
EXTT8=
EXTT9=
EXTT10=
EXTT11=
PLAYORDER=
